<?xml version="1.0" encoding="utf-8"?>
<svg version="1.1" xmlns="http://www.w3.org/2000/svg" xmlns:xlink="http://www.w3.org/1999/xlink" x="0px" y="0px"
	 width="256px" height="69.1px" viewBox="0 0 256 69.1" style="enable-background:new 0 0 256 69.1;" xml:space="preserve">
<style type="text/css">
	.st0{fill:#9BC74E;}
	.st1{fill-rule:evenodd;clip-rule:evenodd;fill:#9BC74E;}
</style>
<path class="st0" d="M84.9,41.5c-1.8,1.7-4.2,2.6-7.3,2.6H71V25.3h6.6c6.7,0,10,3.1,10,9.1C87.6,37.4,86.7,39.7,84.9,41.5L84.9,41.5
	z M81.6,30.3c-1-1-2.5-1.5-4.4-1.5h-2.1v11.9h2.1c1.8,0,3.3-0.5,4.3-1.6c1-1.1,1.6-2.6,1.6-4.5C83.2,32.7,82.6,31.3,81.6,30.3
	L81.6,30.3z M98.9,44.1v-2h-0.1c-1,1.6-2.4,2.4-4.1,2.4c-3.1,0-4.7-1.9-4.7-5.6v-8.1h4.1v7.7c0,1.9,0.8,2.8,2.3,2.8
	c0.7,0,1.3-0.3,1.8-0.8c0.4-0.5,0.7-1.2,0.7-2.1v-7.7h4.1v13.4H98.9L98.9,44.1z M99.6,28.6c-0.6,0-1.1-0.2-1.4-0.5
	c-0.4-0.3-0.6-0.8-0.6-1.3c0-0.5,0.2-1,0.6-1.3c0.4-0.3,0.9-0.5,1.4-0.5c0.6,0,1.1,0.2,1.4,0.5c0.4,0.3,0.6,0.8,0.6,1.3
	s-0.2,1-0.6,1.3C100.7,28.4,100.2,28.6,99.6,28.6L99.6,28.6z M93.6,28.6c-0.6,0-1.1-0.2-1.5-0.5c-0.4-0.3-0.6-0.8-0.6-1.3
	c0-0.5,0.2-1,0.6-1.3c0.4-0.3,0.9-0.5,1.4-0.5c0.6,0,1.1,0.2,1.4,0.5c0.4,0.3,0.6,0.8,0.6,1.3c0,0.5-0.2,1-0.6,1.3
	C94.7,28.4,94.2,28.6,93.6,28.6L93.6,28.6z M117.2,44.1h-12v-1.7l6.7-8.6h-6.1v-3.1h11.3v2l-6.4,8.3h6.4V44.1L117.2,44.1z
	 M122.7,38.6c0.1,1.9,1.4,2.9,3.7,2.9c1.5,0,2.8-0.3,3.9-1v3c-1.2,0.7-2.8,1-4.8,1c-2.2,0-3.8-0.6-5-1.8c-1.2-1.2-1.8-2.9-1.8-5
	c0-2.2,0.6-4,1.9-5.3c1.3-1.3,2.9-1.9,4.8-1.9c2,0,3.5,0.6,4.5,1.7c1.1,1.2,1.6,2.7,1.6,4.7v1.7H122.7L122.7,38.6z M125.3,33.1
	c-0.7,0-1.2,0.3-1.7,0.8c-0.5,0.5-0.8,1.2-0.9,2.1h4.9C127.6,34.1,126.8,33.1,125.3,33.1L125.3,33.1z M142.7,44.1v-7.4
	c0-2.1-0.7-3.1-2.2-3.1c-0.7,0-1.3,0.3-1.8,0.8c-0.5,0.5-0.7,1.2-0.7,2.1v7.6h-4.1V30.7h4.1v2.1h0.1c1-1.6,2.4-2.4,4.3-2.4
	c3,0,4.5,1.8,4.5,5.5v8.2H142.7L142.7,44.1z M150.1,44.1V24.2h4.1v19.8H150.1L150.1,44.1z M161.5,27.9c-0.4,0.4-1,0.6-1.7,0.6
	c-0.7,0-1.3-0.2-1.7-0.6c-0.4-0.4-0.7-0.9-0.7-1.5c0-0.6,0.2-1.1,0.7-1.5c0.4-0.4,1-0.6,1.7-0.6c0.7,0,1.3,0.2,1.7,0.6
	c0.4,0.4,0.7,0.9,0.7,1.5C162.2,27,162,27.5,161.5,27.9L161.5,27.9z M161.9,44.1h-4.1V30.7h4.1V44.1L161.9,44.1z M181.2,37.4v6.7
	H177v-6.6l-6-12.2h4.8l3,7c0.1,0.1,0.2,0.6,0.4,1.5h0.1c0.1-0.6,0.2-1.1,0.4-1.5l3.1-7.1h4.5L181.2,37.4L181.2,37.4z M192.3,38.6
	c0.1,1.9,1.4,2.9,3.7,2.9c1.5,0,2.8-0.3,3.9-1v3c-1.2,0.7-2.8,1-4.8,1c-2.2,0-3.8-0.6-5-1.8c-1.2-1.2-1.8-2.9-1.8-5
	c0-2.2,0.6-4,1.9-5.3c1.3-1.3,2.9-1.9,4.8-1.9c2,0,3.5,0.6,4.5,1.7c1.1,1.2,1.6,2.7,1.6,4.7v1.7H192.3L192.3,38.6z M194.9,33.1
	c-0.7,0-1.2,0.3-1.7,0.8c-0.5,0.5-0.8,1.2-0.9,2.1h4.9C197.2,34.1,196.4,33.1,194.9,33.1L194.9,33.1z M220.7,44.1v-7.6
	c0-1.9-0.7-2.9-2.1-2.9c-0.7,0-1.2,0.3-1.7,0.9c-0.4,0.6-0.6,1.3-0.6,2.2v7.5h-4.1v-7.7c0-1.9-0.7-2.8-2.1-2.8
	c-0.7,0-1.3,0.3-1.7,0.8c-0.4,0.6-0.6,1.3-0.6,2.3v7.4h-4.1V30.7h4.1v2.1h0.1c0.4-0.7,1-1.3,1.8-1.7c0.8-0.4,1.6-0.7,2.5-0.7
	c1.9,0,3.2,0.8,3.9,2.5c1-1.7,2.5-2.5,4.5-2.5c2.9,0,4.4,1.8,4.4,5.4v8.3H220.7L220.7,44.1z M231.4,38.6c0.1,1.9,1.4,2.9,3.7,2.9
	c1.5,0,2.8-0.3,3.9-1v3c-1.2,0.7-2.8,1-4.8,1c-2.2,0-3.8-0.6-5-1.8c-1.2-1.2-1.8-2.9-1.8-5c0-2.2,0.6-4,1.9-5.3
	c1.3-1.3,2.9-1.9,4.8-1.9c2,0,3.5,0.6,4.5,1.7c1.1,1.2,1.6,2.7,1.6,4.7v1.7H231.4L231.4,38.6z M233.9,33.1c-0.7,0-1.2,0.3-1.7,0.8
	c-0.5,0.5-0.8,1.2-0.9,2.1h4.9C236.3,34.1,235.5,33.1,233.9,33.1L233.9,33.1z M256,44.1h-5l-4.3-6.7h-0.1v6.7h-4.1V24.2h4.1v12.6
	h0.1l4-6.2h4.9l-4.8,6.3L256,44.1L256,44.1z"/>
<g>
	<g>
		<g>
			<g>
				<path class="st1" d="M55.1,15.5l-1.9,1.7c1.1,1.1,2,2.4,2.9,3.7l2.1-1.4C57.3,18.1,56.3,16.8,55.1,15.5z"/>
				<path class="st1" d="M48,9.8L46.8,12c0.3,0.2,0.7,0.4,1,0.6l1,0.7l0.9,0.7c0.3,0.2,0.6,0.5,0.9,0.7l1.6-1.9
					c-0.3-0.3-0.7-0.5-1-0.8l-1-0.8l-1.1-0.7C48.8,10.3,48.4,10.1,48,9.8z"/>
				<path class="st1" d="M39.7,6.4l-0.6,2.5c1.5,0.4,3,0.9,4.4,1.5l1-2.3C42.9,7.3,41.3,6.8,39.7,6.4z"/>
			</g>
			<g>
				<path class="st1" d="M63.3,40.8l-2.5-0.3c-0.2,1.5-0.5,3.1-0.9,4.6l2.4,0.7C62.8,44.1,63.1,42.4,63.3,40.8z"/>
				<path class="st1" d="M63.1,31.7l-2.5,0.4c0.3,1.5,0.4,3.1,0.4,4.7l2.5,0C63.5,35,63.4,33.4,63.1,31.7z"/>
				<path class="st1" d="M60.3,23.1L58,24.2c0.7,1.4,1.3,2.9,1.7,4.3l2.4-0.7C61.7,26.2,61,24.6,60.3,23.1z"/>
			</g>
		</g>
	</g>
	<path class="st0" d="M58.8,51.8C58.8,51.8,58.8,51.8,58.8,51.8c-0.6-0.3-1.3,0-1.6,0.5c-3.4,5.7-8.7,10.1-15,12.4
		c0-0.1,0-20.9,0-20.9c0-0.5,0.3-0.9,0.7-1.1c1.8-1,3.1-3.4,3.1-7.4c0-4.1-0.1-7.6-2.4-9v11h-0.8V25.9c-0.4-0.1-0.8-0.2-1.3-0.3
		v11.6h-0.8V25.7c-0.6,0-1.1,0.1-1.5,0.2v11.4h-0.8V26.2c-2.4,1.3-2.4,4.9-2.4,9c0,4,1.3,6.5,3.1,7.4c0.4,0.2,0.7,0.6,0.7,1.1
		c0,0,0,21.6,0,21.7c-2.7,0.7-5.6,1.1-8.6,1c-1.8-0.1-3.5-0.3-5.2-0.6c0-0.1,0-21.8,0-21.8c0-0.5,0.4-1,0.9-1.2
		c2.6-0.9,4.4-3.4,4.4-7.6c0-5.3-2.9-9.6-6.5-9.6S18,30,18,35.3c0,4.2,1.8,6.7,4.4,7.6c0.5,0.2,0.9,0.6,0.9,1.2l0,21.1
		C11.4,61.5,2.8,50.6,2.6,37.6c-0.2-13.7,9-25.4,21.6-28.9c0.8,3.1,1.6,5.9,1.7,6.1C27.2,12.3,29,10,31.2,8c0.7-0.6,1.3-1.2,2-1.7
		c-2.5-2.2-5.5-4-8.6-5.3c-0.9-0.4-1.9-0.7-2.9-1.1c0.1,0.4,0.9,3.2,1.7,6.2C10,10,0,22.4,0,37.1c0,17.4,14.2,31.7,31.6,32
		c11.8,0.1,22.1-6.1,27.8-15.5C59.8,53,59.5,52.1,58.8,51.8z"/>
</g>
</svg>
